<?xml version="1.0" encoding="utf-8"?>
<!-- Generator: Adobe Illustrator 19.1.0, SVG Export Plug-In . SVG Version: 6.00 Build 0)  -->
<!DOCTYPE svg PUBLIC "-//W3C//DTD SVG 1.1//EN" "http://www.w3.org/Graphics/SVG/1.1/DTD/svg11.dtd">
<svg version="1.1" id="Layer_1" xmlns="http://www.w3.org/2000/svg" xmlns:xlink="http://www.w3.org/1999/xlink" x="0px" y="0px"
	 viewBox="-371 501 24 24" style="enable-background:new -371 501 24 24;" xml:space="preserve">
<style type="text/css">
	.st0{fill:#444444;}
	.st1{fill:#FFFFFF;}
</style>
<path class="st0" d="M-349,525H-369c-1.1,0-2-0.9-2-2V503c0-1.1,0.9-2,2-2h19.9c1.1,0,2,0.9,2,2V523C-347,524.1-347.9,525-349,525z"
	/>
<g id="Layer_2">
</g>
<g id="Layer_1_1_">
	<path class="st1" d="M-357.2,522c-2.2,0-4.3,0-6.5,0c-0.1,0-0.3,0-0.3,0c-0.3,0-0.6-0.3-0.6-0.6c0-0.1,0-0.3,0-0.3
		c0-2.8,0-5.7,0-8.6c0-0.1,0-0.2,0-0.3c0-0.3,0.3-0.6,0.7-0.6c0.1,0,0.2,0,0.3,0c4.3,0,8.8,0,13.1,0c0.7,0,0.9,0.3,0.9,1
		c0,2.8,0,5.7,0,8.5c0,0.1,0,0.2,0,0.2c0,0.9-0.9,0.7-1.6,0.7C-353.3,522-355.2,522-357.2,522z M-362.7,519.7
		c0.9,0.1,10.7,0.1,10.9,0c0-0.8,0-1.7,0-2.5c0-0.1,0-0.2-0.1-0.3c-0.4-0.8-0.8-1.8-1.2-2.6c0-0.1-0.1-0.2-0.2-0.3
		c-0.8,0.3-1.6,0.6-2.3,0.8c-0.5,0.2-0.8,0.4-1.2,0.8c-0.5,0.6-1.1,1.1-1.6,1.7c-0.1,0.1-0.2,0.2-0.3,0.3c-0.4-0.5-0.8-1-1.3-1.5
		c-0.4-0.5-0.8-1-1.3-1.5c-0.5,0.9-0.9,1.9-1.3,2.8c-0.1,0.3-0.3,0.5-0.3,0.8C-362.7,518.7-362.7,519.2-362.7,519.7z"/>
	<path class="st1" d="M-356.6,508.2c-0.4,0.3-0.8,0.6-1.1,0.8c-0.3,0.3-0.7,0.5-1,0.8c-0.3,0.3-0.5,0.3-0.8,0.3c-1.5,0-3,0-4.5,0
		c-0.5,0-1,0.2-1.3,0.5c-0.4,0.3-0.7,0.8-0.7,1.4c0,1.1,0,2.2,0,3.3c0,0.2,0,0.3-0.1,0.5c-0.2-0.3-0.3-0.7-0.4-1
		c-0.7-1.7-1.3-3.3-1.9-4.9c0-0.2-0.1-0.3-0.1-0.4c-0.1-0.4,0-0.7,0.3-0.8c0.3-0.2,0.6-0.3,0.9-0.3c1.2-0.4,2.3-0.9,3.5-1.3
		c1.3-0.5,2.4-0.9,3.7-1.4c1.2-0.4,2.3-0.9,3.4-1.3c0.4-0.2,0.9-0.3,1.3-0.5c0.4,0,0.6,0.2,0.7,0.5c0.8,1.8,1.4,3.8,2.2,5.6
		c0,0.1,0.1,0.2,0.1,0.3c-0.3,0.1-1.5,0.1-2.2,0.1C-355.3,509.6-355.9,508.9-356.6,508.2z"/>
</g>
</svg>
